<mxfile host="app.diagrams.net" modified="2023-12-05T17:16:45.093Z" agent="Mozilla/5.0 (Macintosh; Intel Mac OS X 10_15_7) AppleWebKit/537.36 (KHTML, like Gecko) Chrome/119.0.0.0 Safari/537.36" version="22.1.5" etag="KsrKUsVu96zLcXMclcuH" type="github">
  <diagram name="Page-1" id="9eK4c2ayBbE7dOuOj0Mh">
    <mxGraphModel>
      <root>
        <mxCell id="0" />
        <mxCell id="1" parent="0" />
      </root>
    </mxGraphModel>
  </diagram>
</mxfile>
